/* XPM */
static const char * bdc_comm_xpm[] = {
"64 64 309 2",
"  	c None",
". 	c #FFFFFF",
"+ 	c #FFFFFE",
"@ 	c #FEEDEC",
"# 	c #FEDFDF",
"$ 	c #FFE1E1",
"% 	c #FFE0E0",
"& 	c #FFECEC",
"* 	c #FFFCFC",
"= 	c #FE9393",
"- 	c #FD3C3C",
"; 	c #FE4545",
"> 	c #FE3E3E",
", 	c #FE8C8C",
"' 	c #FFFBFB",
") 	c #FF6466",
"! 	c #FD0000",
"~ 	c #FD5B5B",
"{ 	c #FFFCFB",
"] 	c #FF6A6B",
"^ 	c #FE0000",
"/ 	c #FD6161",
"( 	c #FFF6F7",
"_ 	c #FE9B9A",
": 	c #FFA2A1",
"< 	c #FEA1A1",
"[ 	c #FE9C9C",
"} 	c #FFD9D9",
"| 	c #FFC5C5",
"1 	c #FE0D0D",
"2 	c #FD0C0C",
"3 	c #FD0808",
"4 	c #FEB1B1",
"5 	c #FD8D8D",
"6 	c #FE1111",
"7 	c #FDC2C1",
"8 	c #FF4D4E",
"9 	c #FD3737",
"0 	c #FEFFFE",
"a 	c #FD1515",
"b 	c #FE0202",
"c 	c #FD5F5F",
"d 	c #FFF0EF",
"e 	c #FD6363",
"f 	c #FDFFFE",
"g 	c #FFC3C3",
"h 	c #FFC9C9",
"i 	c #FFE0DF",
"j 	c #FEFFFF",
"k 	c #FD5352",
"l 	c #FED9D9",
"m 	c #FED7D7",
"n 	c #FFE8E8",
"o 	c #FEF3F2",
"p 	c #FEDDDE",
"q 	c #FEE2E2",
"r 	c #FEE1E1",
"s 	c #FEE3E3",
"t 	c #FEF8F7",
"u 	c #FED6D6",
"v 	c #FFEDED",
"w 	c #FE1010",
"x 	c #FD2D2E",
"y 	c #FD2020",
"z 	c #FE9797",
"A 	c #FD9F9F",
"B 	c #FD2C2C",
"C 	c #FD2828",
"D 	c #FD4544",
"E 	c #FECACA",
"F 	c #FD4C4C",
"G 	c #FF9A9B",
"H 	c #FFFDFD",
"I 	c #FDAAAA",
"J 	c #FDFFFF",
"K 	c #FE5151",
"L 	c #FD2E2F",
"M 	c #FFDDDC",
"N 	c #FD1212",
"O 	c #FF8282",
"P 	c #FDCFCE",
"Q 	c #FD1818",
"R 	c #FD4E4E",
"S 	c #FE9696",
"T 	c #FD0909",
"U 	c #FF8585",
"V 	c #FFFEFE",
"W 	c #FD2525",
"X 	c #FEE2E1",
"Y 	c #FD6A6A",
"Z 	c #FD6C6C",
"` 	c #FD4F4F",
" .	c #FFF6F4",
"..	c #FECCCD",
"+.	c #FE0303",
"@.	c #FD8E8E",
"#.	c #FD4949",
"$.	c #FD7577",
"%.	c #FF9090",
"&.	c #FFB8B8",
"*.	c #FFE2E2",
"=.	c #FF8686",
"-.	c #FE1616",
";.	c #FDC3C3",
">.	c #FD5050",
",.	c #FD2B2B",
"'.	c #FFDADA",
").	c #FD2A2A",
"!.	c #FF7C7C",
"~.	c #FF6C6D",
"{.	c #FD2121",
"].	c #FDEDEC",
"^.	c #FD2323",
"/.	c #FD4141",
"(.	c #FD5757",
"_.	c #FFF8F8",
":.	c #FFEEEE",
"<.	c #FFEFEF",
"[.	c #FEEAE9",
"}.	c #FE6364",
"|.	c #FD3535",
"1.	c #FD0E0E",
"2.	c #FD6262",
"3.	c #FFD2D1",
"4.	c #FD1414",
"5.	c #FEE5E4",
"6.	c #FE6465",
"7.	c #FE4D4D",
"8.	c #FE5050",
"9.	c #FD6464",
"0.	c #FEB8B8",
"a.	c #FE0606",
"b.	c #FE8B8B",
"c.	c #FE9999",
"d.	c #FE8181",
"e.	c #FD2424",
"f.	c #FE0404",
"g.	c #FD9898",
"h.	c #FD8786",
"i.	c #FE0101",
"j.	c #FE1212",
"k.	c #FDB7B7",
"l.	c #FD6060",
"m.	c #FD0202",
"n.	c #FEA2A1",
"o.	c #FD7878",
"p.	c #FE4747",
"q.	c #FD6868",
"r.	c #FE6767",
"s.	c #FEC5C5",
"t.	c #FD5454",
"u.	c #FD1D1D",
"v.	c #FEE9E9",
"w.	c #FFD7D7",
"x.	c #FE7070",
"y.	c #FE6464",
"z.	c #FE6E6E",
"A.	c #FD1919",
"B.	c #FFE4E4",
"C.	c #FDEEED",
"D.	c #FD2223",
"E.	c #FD0606",
"F.	c #FDAFAF",
"G.	c #FD3232",
"H.	c #FD3030",
"I.	c #FEA0A0",
"J.	c #FFCECE",
"K.	c #FED0CF",
"L.	c #FD0303",
"M.	c #FD2E2E",
"N.	c #FED5D5",
"O.	c #FEE4E4",
"P.	c #FD5959",
"Q.	c #FD8281",
"R.	c #FFD1D1",
"S.	c #FDD2D1",
"T.	c #FD0A0A",
"U.	c #FD4A4A",
"V.	c #FFF7F7",
"W.	c #FDB6B6",
"X.	c #FE1313",
"Y.	c #FFFEFD",
"Z.	c #FD5D5D",
"`.	c #FEFFFD",
" +	c #FFDDDE",
".+	c #FD1B1B",
"++	c #FD8787",
"@+	c #FE0505",
"#+	c #FFE7E5",
"$+	c #FD3939",
"%+	c #FD1F20",
"&+	c #FE0001",
"*+	c #FD8A89",
"=+	c #FD5E5E",
"-+	c #FDCCCC",
";+	c #FFB0AE",
">+	c #FD0101",
",+	c #FEAFAF",
"'+	c #FD4040",
")+	c #FEACAC",
"!+	c #FEE8E6",
"~+	c #FD4B4A",
"{+	c #FD2829",
"]+	c #FFD6D6",
"^+	c #FD5856",
"/+	c #FE8D8D",
"(+	c #FE8F8E",
"_+	c #FD3D3E",
":+	c #FFFBFA",
"<+	c #FFC6C4",
"[+	c #FE4343",
"}+	c #FE2929",
"|+	c #FE2D2D",
"1+	c #FE2525",
"2+	c #FEA2A2",
"3+	c #FDB3B3",
"4+	c #FD2D2D",
"5+	c #FE3030",
"6+	c #FFCDCE",
"7+	c #FFCCCD",
"8+	c #FD5C5B",
"9+	c #FFEFEE",
"0+	c #FFD4D4",
"a+	c #FFD2D2",
"b+	c #FFCFCF",
"c+	c #FEF1F1",
"d+	c #FDFDFD",
"e+	c #FEE1E0",
"f+	c #FFDBDB",
"g+	c #FD5151",
"h+	c #FD1010",
"i+	c #FD3131",
"j+	c #FE3636",
"k+	c #FD8A8A",
"l+	c #FD5353",
"m+	c #FD4B4B",
"n+	c #FE3D3E",
"o+	c #FD8383",
"p+	c #FEB4B4",
"q+	c #FEDBDA",
"r+	c #FDD1D1",
"s+	c #FD2423",
"t+	c #FD4545",
"u+	c #FDDFDF",
"v+	c #FDF2F1",
"w+	c #FE6060",
"x+	c #FDA3A3",
"y+	c #FD3032",
"z+	c #FD4F4E",
"A+	c #FFDFDE",
"B+	c #FFB9B9",
"C+	c #FD1617",
"D+	c #FEE8E7",
"E+	c #FFF5F5",
"F+	c #FD2224",
"G+	c #FE0607",
"H+	c #FE1A1A",
"I+	c #FDB5B5",
"J+	c #FEF1F0",
"K+	c #FFEAE9",
"L+	c #FEAEAF",
"M+	c #FEB0B0",
"N+	c #FEF5F4",
"O+	c #FDB3B4",
"P+	c #FD3434",
"Q+	c #FD7777",
"R+	c #FFF9F9",
"S+	c #FD9595",
"T+	c #FDB1B1",
"U+	c #FFC6C6",
"V+	c #FFC8C8",
"W+	c #FFC7C7",
"X+	c #FFCCCC",
"Y+	c #FDAEAE",
"Z+	c #FFBFBF",
"`+	c #FDBCBA",
" @	c #FF9B9B",
".@	c #FDA1A0",
"+@	c #FE6161",
"@@	c #FDF1F0",
"#@	c #FE2020",
"$@	c #FEF4F4",
"%@	c #FEE5E5",
"&@	c #FE9191",
"*@	c #FDA2A2",
"=@	c #FD0B0B",
"-@	c #FFA7A7",
";@	c #FEF4F3",
">@	c #FE6162",
",@	c #FFA6A6",
"'@	c #FF9898",
")@	c #FDE1E1",
"!@	c #FD3838",
"~@	c #FF7979",
"{@	c #FD5A5A",
"]@	c #FE0608",
"^@	c #FFB9B8",
"/@	c #FD4645",
"(@	c #FD1C1C",
"_@	c #FD1313",
":@	c #FD1717",
"<@	c #FE3C3C",
"[@	c #FECECE",
"}@	c #FEE0DF",
"|@	c #FEBEBD",
"1@	c #FEB6B6",
"2@	c #FED1D1",
"3@	c #FFF9F8",
"4@	c #FEFEFF",
". . . . . . . . . . . . . . . . . . . . . . . . . . . . . . . . . . . . . . . . . . . . . . . . . . . . . . . . . . . . . . . . ",
". . . . . . . . . . . . . . . . . . . . . . . . . . . . . . . . . . . . . . . . . . . . . . . . . . . . . . . . . . . . . . . . ",
". . . . . . . . . . . . . . . . . . . . . . . . . . . . . . . . . . . . . . . . . . . . . . . . . . . . . . . . . . . . . . . . ",
". . . . . . . . . . . . . . . . . . . . . . . . . . . . . . . . . . . . . . . . . . . . . . . . . . . . . . . . . . . . . . . . ",
". . . . . . . . . . . . . . . . . . . . . . . . . . . . . . . . . . . . . . . . . . . . . . . . . . . . . . . . . . . . . . . . ",
". . . . . . . . . . . . . . . . . . . . . . . . . . . . . . . . . . . . . . . . . . . . . . . . . . . . . + . . . . . . . . . . ",
". . . . . . . . . . . . . . . . . . . . . . . . . . . . . . . . . . . . . . . . . . . . . . . . . . . . . . . . . . . . . . . . ",
". . . . . . . . . . . . . . . . . . . . @ # $ $ $ $ $ $ $ $ % & . . . . . . . . . . . . . . . . . . . . . . . . . . . . . . . . ",
". . . . . . . . . . . . . . . . . . . * = - ; ; ; ; ; ; ; ; > , . . . . . . . . . . . . . . . . . . . . . . . . . . . . . . . . ",
". . . . . . . . . . . . . . . . . . . ' ) ! ! ! ! ! ! ! ! ! ! ~ . . . . . . . . . . . . . . . . . . . . . . . . . . . . . . . . ",
". . . . . . . . . . . . . . . . . . . { ] ! ^ ^ ^ ^ ^ ^ ^ ^ ^ / . . . . . ( _ : < [ } . . . . . . . . . . . . . . . . . . . . . ",
". . . . . . . . . . . . . . . . . . . { ] ! ^ ^ ^ ^ ^ ^ ^ ^ ^ / . . . . . | ! 1 2 3 4 . . . . . . . . . . . . . . . . . . . . . ",
". . . . . . . . . . . . . . . . . . . { ] ! ^ ^ ^ ^ ^ ^ ^ ^ ^ / . . . . . 5 ! ! ^ 6 7 . . . . . . . . . . . . . . . . . . . . . ",
". . . . . . . . . . . . . . . . . . . { ] ! ^ ^ ^ ^ ^ ^ ^ ^ ^ / . . . . . 8 ! ! ! 9 } . . . . . . . . . . . . . . . . . . . . . ",
". . . . . . . . . . . . . . . . . . . { ] ! ^ ^ ^ ^ ^ ^ ^ ^ ^ / . . . 0 . a ^ b ^ c d . . . . . . . . . . . . . . . . . . . . . ",
". . . . . . . . . . . . . . . . . . . { ] ! ^ ^ ^ ^ ^ ^ ^ ^ ^ e . . . f . g h h | i j . . . . . . . . . . . . . . . . . . . . . ",
". . . . . . . . . . . . . . . . . . . { ] ! ^ ^ ^ ^ ^ ^ ^ ^ ^ k l m n . o p q r s t j # m l l l l l l u v . . . . . . . . . . . ",
". . . . . . . . . . . . . . . . . . . { ] ! ^ ^ ^ ^ ^ ^ ^ ^ ^ w x y z j A y B C D E v F C B B B B B B y G H . . . . . . . . . . ",
". . . . . . . . . . . . . . . . . . . { ] ! ^ ^ ^ ^ ^ ^ ^ ^ ^ ^ ^ ^ I J K ^ ^ ^ L M g N ^ ^ ^ ^ ^ ^ ^ ! O H . . . . . . . . . . ",
". . . . . . . . . . . . . . . . . . . { ] ! ^ ^ ^ ^ ^ ^ ^ ^ ^ ^ ^ ^ P j Q ^ ^ ^ R j S T ^ ^ ^ ^ ^ ^ ^ ! U V . . . . . . . . . . ",
". . . . . . . . . . . . . . . . . . . { ] ! ^ ^ ^ ^ ^ ^ ^ ^ ^ ^ ^ W X j ! ^ ^ ^ Y j Z ^ ^ ^ ^ ^ ^ ^ ^ ! U V . . . . . . . . . . ",
". . . . . . . . . . . . . . . . . . . { ] ! ^ ^ ^ ^ ^ ^ ^ ^ ^ ^ ^ `  ...! ^ ^ +.@.. #.^ ^ ^ ^ ^ ^ ^ ^ ! U V . . . . . . . . . . ",
". . . . . . . . . . . . . . . . . . . { ] ! ^ ^ ^ ^ ^ ^ ^ ^ ^ ! ! $.J %.! ^ ^ Q &.*.C ! ! ^ ^ ^ ^ ^ ^ ! =.V . . . . . . . . . . ",
". . . . . . . . . . . . . . . . . . . { ] ! ^ ^ ^ ^ ^ ^ ^ -.;.. . J J >.! ^ ^ ,.'.J . . . ).^ ^ ^ ^ ^ ! !.H . . . . . . . . . . ",
". . . . . . . . . . . . . . . . . . . . ~.! ^ ^ ^ ^ ^ ^ ^ {.].. . j . ^.^ ^ ^ /.* . . J J ! ^ ^ ^ ^ ^ ^ (._.j . . . . . . . . . ",
". . . . . . . :.v v v v v v v v v v <.[.}.! ^ ^ ^ ^ ^ ^ ^ |.. . . J n 1.^ ^ ^ 2.j . . . 3.! ^ ^ ^ ^ ^ ^ 4.5.J . . . . . . . . . ",
". . . . . . . 6.7.8.K K K K K K K K K >.{.^ ^ ^ ^ ^ ^ ^ ^ 9.. . . . 0.3 ^ ^ a.b.J . . j c.! ^ ^ ^ ^ ^ ^ ! d.j . . . . . . . . . ",
". . . . . . . e.! ! ! ! ! ! ! ! ! ! ! ^ ^ ^ ^ ^ ^ ^ ^ ^ f.g.j + . . h.i.^ ^ j.k.j . . j l.^ ^ ^ ^ ^ ^ ^ ^ m.n.. . . . . . . . . ",
". . . . . . . o.^ ^ ^ ^ ^ ^ ^ ^ ^ ^ ^ ^ ^ ^ ^ ^ ^ ^ ^ ^ b p.q.r.s.. t.^ ^ ^ u.v.w.x.y.z.A.^ ^ ^ ^ ^ ^ ^ ^ ^ ! B.. . . . . . . . ",
". . . . . . . C.D.^ ^ ^ ^ ^ ^ ^ ^ ^ ^ ^ ^ ^ ^ ^ ^ ^ ^ ^ ^ ^ ^ E.F.. G.^ ^ ^ H.. I.! ! ! ^ ^ ^ ^ ^ ^ ^ ^ ^ ^ ! J.. . . . . . . . ",
". . . . . . . j K.L.^ ^ ^ ^ ^ ^ ^ ^ ^ ^ ^ ^ ^ ^ ^ ^ ^ ^ ^ ^ ^ M.N.O.y ^ ^ ^ P.. Q.^ ^ ^ ^ ^ ^ ^ ^ ^ ^ ^ ^ ^ ! R.. . . . . . . . ",
". . . . . . . J . S.T.^ ^ ^ ^ ^ ^ ^ ^ ^ ^ ^ ^ ^ ^ ^ ^ ^ ^ ^ ^ U.V.W.X.^ ^ ^ 5 Y.Z.^ ^ ^ ^ ^ ^ ^ ^ ^ ^ ^ ^ ^ ! R.. . . . . . . . ",
". . . . . . . `.. j  +.+! ^ ^ ^ ^ ^ ^ ^ ^ ^ ^ ^ ^ ^ ^ ^ ^ ^ ^ 9.J ++@+^ ^ L.| #+$+^ ^ ^ ^ ^ ^ ^ ^ ^ ^ ^ ^ ^ ! R.. . . . . . . . ",
". . . . . . . . . . . *.%+! ^ ^ ^ ^ ^ ^ ^ ^ ^ ^ ^ ^ ^ ^ ^ ^ &+*+. =+^ ^ ^ 2 H -+6 ^ ^ ^ ^ ^ ^ ^ ^ ^ ^ ^ ^ ^ ! R.. . . . . . . . ",
". . . . . . . . . . . . ;+>+^ ^ ^ ^ ^ ^ ^ ^ ^ ^ ^ ^ ^ ^ ^ ^ a ,+. '+^ ^ ^ W . )+! ^ ^ ^ ^ ^ ^ ^ ^ ^ ^ ^ ^ ^ ! R.. . . . . . . . ",
". . . . . . . . . . . . !+~+^ ^ ^ ^ ^ ^ ^ ^ ^ ^ ^ ^ ^ ^ ^ ^ {+]+m W ! ! ! ^+. /+! ! ^ ^ ^ ^ ^ ^ ^ ^ ^ ^ ^ ^ ! R.. . . . . . . . ",
". . . . . . . . . . . . j (+! ^ ^ ^ ^ ^ ^ ^ ^ ^ ^ ^ ^ ^ ^ ^ _+:+<+[+}+|+1+2+. 3+4+5+4.^ ^ ^ ^ ^ ^ ^ ^ ^ ^ ^ ! 6+. . . . . . . . ",
". . . . . . . . . . . . . 7+).^ ^ ^ ^ ^ ^ ^ ^ ! ^ ^ ^ ^ ^ ^ 8+. 9+0+R.a+b+c+j d+e+f+g+^ ^ ^ ^ ^ ^ ^ ^ ! ^ h+i+$ . . . . . . . . ",
". . . . . . . . . . . . . . Z ^ ^ ^ ^ ^ ^ j+k+S l+! ^ ^ ^ @+++. . . . . . j j j . . m+^ ^ ^ ^ ^ ^ ^ >+n+o+p+q++ . . . . . . . . ",
". . . . . . . . . . . . . . r+s+^ ^ ^ ^ t+u+J j v+w+! ^ ^ 1 x+. . . . . . . . . . l y+^ ^ ^ ^ ^ ^ z+)+A+j . . . . . . . . . . . ",
". . . . . . . . . . . . . . j B+C+! ! 9 D+j j j j E+F+^ ^ G+5 . . . . . . . . . . W.H+^ ^ ^ ^ 4+I+J+. . . . . . . . . . . . . . ",
". . . . . . . . . . . . . . . J K+L+M+N+. . . . . J O+! ^ ^ P+$ . . . . . . . . . g.@+^ ^ ! Q+R+j . . . . . . . . . . . . . . . ",
". . . . . . . . . . . . . . . + . . . . . . . . . . J ^.! ^ ! T.(.S+T+U+V+W+W+V+X+=+^ ! ! Y+. . + . . . . . . . . . . . . . . . ",
". . . . . . . . . . . . . . . . . . . . . . . . . . . Z+! ^ ^ ! ! ! ! ! ! ! ! ! ! ^ ! ^ `+. . . . . . . . . . . . . . . . . . . ",
". . . . . . . . . . . . . . . . . . . . . . . . . . . j u.^ ^ ^ ^ ^ ^ ^ ^ ^ ^ ^ ^ ^ !  @. . . . . . . . . . . . . . . . . . . . ",
". . . . . . . . . . . . . . . . . . . . . . . . . . . j .@^ ^ ^ ^ ^ ^ ^ ^ ^ ^ ^ ^ ! +@E+. . . . . . . . . . . . . . . . . . . . ",
". . . . . . . . . . . . . . . . . . . . . . . . . . . . @@#@^ ^ ^ ^ ^ ^ ^ ^ ^ ^ ^ A.| . . . . . . . . . . . . . . . . . . . . . ",
". . . . . . . . . . . . . . . . . . . . . . . . . . . . j S+^ ^ ^ ^ ^ ^ ^ ^ ^ ^ ^ / $@. . . . . . . . . . . . . . . . . . . . . ",
". . . . . . . . . . . . . . . . . . . . . . . . . . . . . %@i+^ ^ ^ ^ ^ ^ ^ ^ ^ ! &@j . . . . . . . . . . . . . . . . . . . . . ",
". . . . . . . . . . . . . . . . . . . . . . . . . . . . . . *@! ^ ^ ^ ^ ^ ^ ^ ^ =@-@. . . . . . . . . . . . . . . . . . . . . . ",
". . . . . . . . . . . . . . . . . . . . . . . . . . . . . . ;@>@! ^ ^ ^ ^ ^ ^ ^ T ,@. . . . . . . . . . . . . . . . . . . . . . ",
". . . . . . . . . . . . . . . . . . . . . . . . . . . . . . . $ $+! ^ ^ ^ ^ ^ ^ ! '@. . . . . . . . . . . . . . . . . . . . . . ",
". . . . . . . . . . . . . . . . . . . . . . . . . . . . . . . . )@!@! ! ^ ^ ^ ^ ! ~@. . . . . . . . . . . . . . . . . . . . . . ",
". . . . . . . . . . . . . . . . . . . . . . . . . . . . . . . . . V.{@]@! ^ ^ ^ ! > i . . . . . . . . . . . . . . . . . . . . . ",
". . . . . . . . . . . . . . . . . . . . . . . . . . . . . . . . . J . ^@/@(@a _@:@<@[@. . . . . . . . . . . . . . . . . . . . . ",
". . . . . . . . . . . . . . . . . . . . . . . . . . . . . . . . . . . j J }@|@1@2@3@j . . . . . . . . . . . . . 4@. . . . . . . ",
". . . . . . . . . . . . . . . . . . . . . . . . . . . . . . . . . . . . . . . . . . . . . . . . . . . . . . . . . . j . . . . . ",
". . . . . . . . . . . . . . . . . . . . . . . . . . . . . . . . . . . . . . . . . . . . . . . . . . . . . . . . . . . . . . . . ",
". . . . . . . . . . . . . . . . . . . . . . . . . . . . . . . . . . . . . . . . . . . . . . . . . . . . . . . . . . . . . . . . ",
". . . . . . . . . . . . . . . . . . . . . . . . . . . . . . . . . . . . . . . . . . . . . . . . . . . . . . . . . . . . . . . . ",
". . . . . . . . . . . . . . . . . . . . . . . . . . . . . . . . . . . . . . . . . . . . . . . . . . . . . . . . . . . . . . . . ",
". . . . . . . . . . . . . . . . . . . . . . . . . . . . . . . . . . . . . . . . . . . . . . . . . . . . . . . . . . . . . . . . ",
". . . . . . . . . . . . . . . . . . . . . . . . . . . . . . . . . . . . . . . . . . . . . . . . . . . . . . . . . . . . . . . . ",
". . . . . . . . . . . . . . . . . . . . . . . . . . . . . . . . . . . . . . . . . . . . . . . . . . . . . . . . . . . . . . . . "};
